<svg xmlns="http://www.w3.org/2000/svg" width="23" height="23" viewBox="0 0 23 23"><defs><style>.a{fill:none;}.b{fill:#222;}</style></defs><g transform="translate(0.883 0.393)"><g transform="translate(-0.477 0.007)"><rect class="a" width="23" height="23" transform="translate(-0.405 -0.4)"/><path class="b" d="M21.7,17.361v5.424a1.159,1.159,0,0,1-1.162,1.162H15.111a1.164,1.164,0,0,1-.823-1.986l1.753-1.753-5.192-5.192-5.193,5.2L7.41,21.962a1.164,1.164,0,0,1-.823,1.986H1.162A1.159,1.159,0,0,1,0,22.785V17.361a1.164,1.164,0,0,1,1.986-.823l1.753,1.753,5.2-5.192-5.2-5.2L1.986,9.66A1.164,1.164,0,0,1,0,8.837V3.412A1.159,1.159,0,0,1,1.162,2.25H6.587A1.164,1.164,0,0,1,7.41,4.236L5.657,5.989l5.192,5.192,5.193-5.2L14.287,4.236a1.164,1.164,0,0,1,.823-1.986h5.424A1.159,1.159,0,0,1,21.7,3.412V8.837a1.164,1.164,0,0,1-1.986.823L17.959,7.907l-5.2,5.192,5.2,5.2,1.752-1.753A1.161,1.161,0,0,1,21.7,17.361Z" transform="translate(0.596 -2.084)"/></g></g></svg>