<svg xmlns="http://www.w3.org/2000/svg" width="10" height="10" viewBox="0 0 10 10"><defs><style>.a{fill:none;}.b{fill:#222;}</style></defs><g transform="translate(0 0)"><rect class="a" width="9.881" height="9.535" transform="translate(0.119 0.437)"/><path class="b" d="M12.278,10.068a1.537,1.537,0,0,0-1.016.387l-3.7-2.083a1.346,1.346,0,0,0,0-.7L11.22,5.605a1.577,1.577,0,0,0,1.058.407,1.529,1.529,0,0,0,1.556-1.506,1.556,1.556,0,0,0-3.111,0,1.594,1.594,0,0,0,.047.351L7.113,6.921a1.577,1.577,0,0,0-1.058-.407,1.507,1.507,0,1,0,0,3.012,1.577,1.577,0,0,0,1.058-.407l3.692,2.088a1.373,1.373,0,0,0-.041.326,1.515,1.515,0,1,0,1.514-1.466Z" transform="translate(-4.5 -3)"/></g></svg>